<svg width="60" height="45" viewBox="0 0 60 45" fill="none" xmlns="http://www.w3.org/2000/svg">
<path d="M46.5 33.75H49.125C49.875 33.75 50.625 33 50.625 32.25V5.25C50.625 4.5 49.875 3.75 49.125 3.75H46.5C45.75 3.75 45 4.5 45 5.25V32.25C45 33 45.75 33.75 46.5 33.75ZM24 33.75H26.625C27.375 33.75 28.125 33 28.125 32.25V9C28.125 8.25 27.375 7.5 26.625 7.5H24C23.25 7.5 22.5 8.25 22.5 9V32.25C22.5 33 23.25 33.75 24 33.75V33.75ZM35.25 33.75H37.875C38.625 33.75 39.375 33 39.375 32.25V16.5C39.375 15.75 38.625 15 37.875 15H35.25C34.5 15 33.75 15.75 33.75 16.5V32.25C33.75 33 34.5 33.75 35.25 33.75V33.75ZM58.125 39.375H5.625V1.875C5.625 0.839062 4.78594 0 3.75 0H1.875C0.839062 0 0 0.839062 0 1.875V41.25C0 43.3207 1.6793 45 3.75 45H58.125C59.1609 45 60 44.1609 60 43.125V41.25C60 40.2141 59.1609 39.375 58.125 39.375ZM12.75 33.75H15.375C16.125 33.75 16.875 33 16.875 32.25V24C16.875 23.25 16.125 22.5 15.375 22.5H12.75C12 22.5 11.25 23.25 11.25 24V32.25C11.25 33 12 33.75 12.75 33.75V33.75Z" fill="black"/>
</svg>
