<svg width="60" height="47" viewBox="0 0 60 47" fill="none" xmlns="http://www.w3.org/2000/svg">
<path d="M29.2045 12.1043L10.0008 27.9208V44.9913C10.0008 45.4333 10.1764 45.8572 10.4889 46.1697C10.8014 46.4823 11.2253 46.6579 11.6673 46.6579L23.3393 46.6277C23.7799 46.6255 24.2016 46.4489 24.5124 46.1366C24.8231 45.8243 24.9976 45.4017 24.9976 44.9611V34.9921C24.9976 34.5501 25.1731 34.1262 25.4857 33.8137C25.7982 33.5011 26.2221 33.3256 26.6641 33.3256H33.3302C33.7722 33.3256 34.1961 33.5011 34.5087 33.8137C34.8212 34.1262 34.9968 34.5501 34.9968 34.9921V44.9538C34.9961 45.1731 35.0387 45.3904 35.1221 45.5932C35.2056 45.796 35.3282 45.9803 35.4831 46.1356C35.6379 46.2909 35.8218 46.4141 36.0244 46.4982C36.2269 46.5823 36.444 46.6256 36.6633 46.6256L48.3312 46.6579C48.7732 46.6579 49.1971 46.4823 49.5096 46.1697C49.8221 45.8572 49.9977 45.4333 49.9977 44.9913V27.9093L30.7981 12.1043C30.5724 11.9223 30.2912 11.8231 30.0013 11.8231C29.7114 11.8231 29.4302 11.9223 29.2045 12.1043V12.1043ZM59.5386 22.8545L50.831 15.6769V1.2499C50.831 0.918409 50.6993 0.600491 50.4649 0.366089C50.2305 0.131686 49.9126 0 49.5811 0H43.7482C43.4167 0 43.0988 0.131686 42.8644 0.366089C42.63 0.600491 42.4983 0.918409 42.4983 1.2499V8.81286L33.173 1.14054C32.278 0.404114 31.1551 0.00147212 29.9961 0.00147212C28.8372 0.00147212 27.7142 0.404114 26.8193 1.14054L0.45361 22.8545C0.327044 22.9591 0.222331 23.0876 0.145453 23.2327C0.0685758 23.3778 0.0210408 23.5366 0.00556432 23.7001C-0.00991221 23.8636 0.00697307 24.0285 0.0552553 24.1854C0.103538 24.3424 0.182271 24.4883 0.286956 24.6148L2.943 27.8437C3.0474 27.9706 3.17581 28.0757 3.32089 28.153C3.46596 28.2302 3.62485 28.2781 3.78845 28.2939C3.95205 28.3097 4.11716 28.293 4.27432 28.2449C4.43147 28.1968 4.5776 28.1181 4.70432 28.0135L29.2045 7.83377C29.4302 7.65183 29.7114 7.55262 30.0013 7.55262C30.2912 7.55262 30.5724 7.65183 30.7981 7.83377L55.2994 28.0135C55.4259 28.1182 55.5718 28.1969 55.7287 28.2452C55.8857 28.2934 56.0506 28.3103 56.2141 28.2949C56.3775 28.2794 56.5363 28.2318 56.6814 28.155C56.8265 28.0781 56.9551 27.9734 57.0597 27.8468L59.7157 24.6179C59.8203 24.4907 59.8987 24.344 59.9464 24.1864C59.9941 24.0288 60.0102 23.8633 59.9937 23.6994C59.9773 23.5355 59.9286 23.3765 59.8505 23.2315C59.7724 23.0865 59.6664 22.9584 59.5386 22.8545V22.8545Z" fill="black"/>
</svg>
