<svg width="66" height="57" viewBox="0 0 66 57" fill="none" xmlns="http://www.w3.org/2000/svg">
<path d="M58 0H8C5.23854 0 3 2.23854 3 5V35C3 37.7615 5.23854 40 8 40H58C60.7615 40 63 37.7615 63 35V5C63 2.23854 60.7615 0 58 0ZM58.8333 35C58.8333 35.4595 58.4595 35.8333 58 35.8333H8C7.54052 35.8333 7.16667 35.4595 7.16667 35V5C7.16667 4.54052 7.54052 4.16667 8 4.16667H58C58.4595 4.16667 58.8333 4.54052 58.8333 5V35ZM20.7083 21.4583V18.5417C20.7083 17.8514 20.1486 17.2917 19.4583 17.2917H16.5417C15.8514 17.2917 15.2917 17.8514 15.2917 18.5417V21.4583C15.2917 22.1486 15.8514 22.7083 16.5417 22.7083H19.4583C20.1486 22.7083 20.7083 22.1486 20.7083 21.4583ZM30.7083 21.4583V18.5417C30.7083 17.8514 30.1486 17.2917 29.4583 17.2917H26.5417C25.8514 17.2917 25.2917 17.8514 25.2917 18.5417V21.4583C25.2917 22.1486 25.8514 22.7083 26.5417 22.7083H29.4583C30.1486 22.7083 30.7083 22.1486 30.7083 21.4583ZM40.7083 21.4583V18.5417C40.7083 17.8514 40.1486 17.2917 39.4583 17.2917H36.5417C35.8514 17.2917 35.2917 17.8514 35.2917 18.5417V21.4583C35.2917 22.1486 35.8514 22.7083 36.5417 22.7083H39.4583C40.1486 22.7083 40.7083 22.1486 40.7083 21.4583ZM50.7083 21.4583V18.5417C50.7083 17.8514 50.1486 17.2917 49.4583 17.2917H46.5417C45.8514 17.2917 45.2917 17.8514 45.2917 18.5417V21.4583C45.2917 22.1486 45.8514 22.7083 46.5417 22.7083H49.4583C50.1486 22.7083 50.7083 22.1486 50.7083 21.4583ZM15.7083 30V27.0833C15.7083 26.393 15.1486 25.8333 14.4583 25.8333H11.5417C10.8514 25.8333 10.2917 26.393 10.2917 27.0833V30C10.2917 30.6903 10.8514 31.25 11.5417 31.25H14.4583C15.1486 31.25 15.7083 30.6903 15.7083 30ZM55.7083 30V27.0833C55.7083 26.393 55.1486 25.8333 54.4583 25.8333H51.5417C50.8514 25.8333 50.2917 26.393 50.2917 27.0833V30C50.2917 30.6903 50.8514 31.25 51.5417 31.25H54.4583C55.1486 31.25 55.7083 30.6903 55.7083 30ZM15.7083 12.9167V10C15.7083 9.30969 15.1486 8.75 14.4583 8.75H11.5417C10.8514 8.75 10.2917 9.30969 10.2917 10V12.9167C10.2917 13.607 10.8514 14.1667 11.5417 14.1667H14.4583C15.1486 14.1667 15.7083 13.607 15.7083 12.9167ZM25.7083 12.9167V10C25.7083 9.30969 25.1486 8.75 24.4583 8.75H21.5417C20.8514 8.75 20.2917 9.30969 20.2917 10V12.9167C20.2917 13.607 20.8514 14.1667 21.5417 14.1667H24.4583C25.1486 14.1667 25.7083 13.607 25.7083 12.9167ZM35.7083 12.9167V10C35.7083 9.30969 35.1486 8.75 34.4583 8.75H31.5417C30.8514 8.75 30.2917 9.30969 30.2917 10V12.9167C30.2917 13.607 30.8514 14.1667 31.5417 14.1667H34.4583C35.1486 14.1667 35.7083 13.607 35.7083 12.9167ZM45.7083 12.9167V10C45.7083 9.30969 45.1486 8.75 44.4583 8.75H41.5417C40.8514 8.75 40.2917 9.30969 40.2917 10V12.9167C40.2917 13.607 40.8514 14.1667 41.5417 14.1667H44.4583C45.1486 14.1667 45.7083 13.607 45.7083 12.9167ZM55.7083 12.9167V10C55.7083 9.30969 55.1486 8.75 54.4583 8.75H51.5417C50.8514 8.75 50.2917 9.30969 50.2917 10V12.9167C50.2917 13.607 50.8514 14.1667 51.5417 14.1667H54.4583C55.1486 14.1667 55.7083 13.607 55.7083 12.9167ZM45.5 29.375V27.7083C45.5 27.018 44.9403 26.4583 44.25 26.4583H21.75C21.0597 26.4583 20.5 27.018 20.5 27.7083V29.375C20.5 30.0653 21.0597 30.625 21.75 30.625H44.25C44.9403 30.625 45.5 30.0653 45.5 29.375Z" fill="black"/>
<path d="M60.6429 39.3929H60.8929V39.1429V33.3029C60.8929 31.9346 62.0135 30.796 63.369 30.8219C64.6883 30.8471 65.7501 31.9246 65.75 33.25V43.3187C65.75 44.2909 65.6375 45.2599 65.4149 46.2062L63.6398 53.7505C63.3247 55.0895 62.1298 56.0358 60.7543 56.0358H47.5228C47.0552 56.0358 46.5943 55.9252 46.1777 55.713C45.761 55.5009 45.4005 55.1931 45.1255 54.815L36.7147 43.2499C35.9258 42.1651 36.1656 40.6463 37.2503 39.8574C38.3352 39.0684 39.854 39.3083 40.6428 40.393L42.7621 43.3073L43.2143 43.9291V43.1602V27.3572C43.2143 26.0317 44.2761 24.9543 45.5954 24.929C46.9509 24.9031 48.0715 26.0417 48.0715 27.4101V39.1429V39.3929H48.3215H48.8572H49.1072V39.1429V24.6786C49.1072 23.3532 50.169 22.2757 51.4882 22.2504C52.8438 22.2245 53.9643 23.3631 53.9643 24.7315V39.1429V39.3929H54.2143H54.75H55V39.1429V27.2902C55 25.9648 56.0618 24.8873 57.3811 24.862C58.7366 24.8361 59.8572 25.9747 59.8572 27.3431V39.1429V39.3929H60.1072H60.6429Z" fill="black" stroke="#778186" stroke-width="0.5"/>
<path d="M5.35709 39.3929H5.10709V39.1429V33.3029C5.10709 31.9345 3.98653 30.7959 2.63099 30.8219C1.31171 30.8471 0.249939 31.9246 0.25 33.25V43.3187C0.250011 44.2909 0.362473 45.2598 0.58514 46.2062L2.36023 53.7504C2.67531 55.0894 3.87017 56.0357 5.24573 56.0357H18.4772C18.9448 56.0357 19.4057 55.9251 19.8223 55.7129C20.239 55.5008 20.5995 55.1931 20.8745 54.8149L29.2853 43.2499C30.0742 42.1651 29.8344 40.6462 28.7497 39.8573C27.6648 39.0684 26.146 39.3083 25.3572 40.393L23.2379 43.3072L22.7857 43.929V43.1602V27.3572C22.7857 26.0317 21.7239 24.9543 20.4046 24.929C19.0491 24.9031 17.9285 26.0417 17.9285 27.4101V39.1429V39.3929H17.6785H17.1428H16.8928V39.1429V24.6786C16.8928 23.3532 15.831 22.2757 14.5118 22.2504C13.1562 22.2245 12.0357 23.3631 12.0357 24.7315V39.1429V39.3929H11.7857H11.25H11V39.1429V27.2902C11 25.9648 9.93818 24.8873 8.6189 24.862C7.26336 24.8361 6.1428 25.9747 6.1428 27.3431V39.1429V39.3929H5.8928H5.35709Z" fill="black" stroke="#778186" stroke-width="0.5"/>
</svg>
