<svg width="93" height="64" viewBox="0 0 93 64" fill="none" xmlns="http://www.w3.org/2000/svg">
<path fill-rule="evenodd" clip-rule="evenodd" d="M92.0957 14.5778C92.0957 14.5778 87.2945 14.5611 82.2204 14.5778C77.1463 14.5944 75.8614 18.4724 75.8614 18.4724L63.1721 51.2385L68.112 63.9888C73.1806 63.9688 74.4655 60.0941 74.4655 60.0941L92.0957 14.5778Z" fill="#4FC8E3"/>
<path fill-rule="evenodd" clip-rule="evenodd" d="M54.6849 29.3275L54.6727 29.2964C54.6722 29.2927 54.6722 29.289 54.6727 29.2853L54.6638 29.2643C53.5542 26.477 51.2496 24.179 48.5944 22.397C51.2574 20.0669 52.9129 16.5939 52.9129 12.717C52.9129 7.12244 48.0984 0 34.2718 0H10.014V18.6832H0V29.4274H10.0118V48.7342H35.5068C37.7039 48.7487 39.8949 48.4987 42.0323 47.9896L42.06 47.983C43.6142 47.6085 45.1167 47.0451 46.5339 46.3053L51.8765 60.0975C51.8765 60.0975 53.1625 63.9744 58.2345 63.9921C63.3064 64.0099 68.1098 63.9921 68.1098 63.9921L54.6849 29.3275ZM24.4043 10.7452H33.3675C37.3154 10.7452 38.5493 12.7991 38.5493 14.7153C38.5493 16.6316 37.321 18.6721 33.3986 18.6832H24.4043V10.7452ZM24.4043 29.4263H33.9079C38.0921 29.4263 39.4003 31.6033 39.4003 33.6349C39.4003 35.6666 38.0988 37.8303 33.9412 37.8425H24.4043V29.4263Z" fill="#4B6FDD"/>
<path opacity="0.8" d="M41.3554 32.927C41.3554 32.927 40.2858 29.4107 34.476 29.4107H34.0643V29.4274C38.1243 29.4817 39.3992 31.6299 39.3992 33.6349C39.3992 35.6621 38.0977 37.8303 33.9401 37.8425H24.4043V29.4163L10.014 29.4274V48.7342H35.5068C37.704 48.7487 39.8949 48.4987 42.0323 47.9897L42.06 47.983C43.6142 47.6086 45.1167 47.0451 46.5339 46.3053L41.3554 32.927Z" fill="url(#paint0_linear)"/>
<path d="M10.0118 29.4274H0L10.0118 34.0366V29.4274Z" fill="url(#paint1_linear)"/>
<defs>
<linearGradient id="paint0_linear" x1="21.3174" y1="42.1084" x2="27.5636" y2="31.2895" gradientUnits="userSpaceOnUse">
<stop stop-color="#4B6FDD"/>
<stop offset="1" stop-color="#415288"/>
</linearGradient>
<linearGradient id="paint1_linear" x1="5.11874" y1="31.6907" x2="5.99306" y2="30.1765" gradientUnits="userSpaceOnUse">
<stop stop-color="#86C9E0"/>
<stop offset="1" stop-color="#56808E"/>
</linearGradient>
</defs>
</svg>
